<?xml version='1.0' encoding='utf-8'?>
<svg xmlns="http://www.w3.org/2000/svg" enable-background="new 0 0 2450.824 1657.949" version="1.1" viewBox="0 0 2450.824 1657.949">
	<path d="m2122.3 494.09c5.386 1.002 13.634-0.826 21.835 1.068 10.667 2.463 21.727 0.414 32.466 1.734 50.078 6.154 100.33 6.396 150.39 14.8 7.117 1.195 14.363 2.51 20.71 5.943 11.029 5.965 17.185 18.234 4.824 26.313-11.251 7.354-23.704 11.698-36.782 13.986-10.15 1.775-17.546 7.292-23.964 14.766-10.037 11.688-21.006 22.345-33.353 31.653-13.143 9.909-26.703 19.235-39.822 29.152-2.704 2.044-5.717 2.413-8.458 3.833-10.872 5.633-18.554 14.005-23.059 25.133-2.76 6.817-7.84 10.516-14.242 12.73-13.936 4.819-28.495 6.666-43.036 8.606-22.67 3.024-45.46 4.54-68.248 6.341-36.851 2.912-73.731 4.073-110.66 4.683-20.639 0.341-41.263 1.516-61.899 2.104-10.258 0.292-20.529 0.08-30.794 0.166-1.532 0.013-3.695-0.779-4.454 0.774-0.924 1.892 1.326 3.191 2.425 4.175 7.757 6.941 11.462 15.621 11.519 25.871 0.128 22.952-11.098 33.586-30.024 37.528-22.573 4.701-45.213 9.564-68.461 10.687-10.517 0.508-20.919 3.306-31.386 4.983-17.773 2.847-35.61 2.077-53.508 1.422-12.576-0.46-25.222-0.051-37.822-0.079-19.741-0.044-39.269 3.233-58.988 2.905-1.847-0.031-3.539 0.343-5.087 1.499-16.604 12.409-35.565 20.473-54.144 29.227-2.913 1.373-4.442 3.45-5.82 6.32-4.604 9.584-10.195 18.497-17.419 26.494-11.787 13.049-22.928 26.678-34.517 39.909-3.416 3.899-7.49 7.214-11.146 10.912-15.864 16.044-32.78 30.901-50.47 44.887-8.793 6.952-15.185 15.909-21.269 25.141-16.979 25.766-37.556 48.544-58.862 70.705-4.493 4.673-9.981 8.063-15.766 10.909-17.28 8.503-32.886 20.009-50.474 27.969-13.163 5.957-27.159 9.638-40.521 14.965-23.799 9.487-47.996 17.908-71.756 27.509-13.541 5.472-27.554 9.98-41.474 14.343-17.94 5.623-36.124 10.648-54.674 14.414-17.951 3.645-36.188 4.916-54.074 8.349-16.482 3.164-32.677 7.693-48.393 14.088-27.204 11.07-47.482 30.382-65.888 52.339-10.532 12.564-21.305 24.928-32.127 37.244-10.501 11.95 10.55 18.757 17.354 26.638 7.414 8.587 7.076 16.548 1.729 25.986-11.519 20.331-22.091 58.025-52.328 39.459-7.669-4.709-16.727-6.497-25.008-9.995-3.409-1.44-4.707 1.132-5.952 3.419-3.731 6.851-7.192 13.855-11.075 20.617-7.344 12.787-13.866 26.021-21.605 38.604-5.312 8.636-9.221 18.134-14.513 26.785-8.761 14.321-15.586 29.68-24.6 43.906-5.155 8.135-9.971 16.784-13.747 25.86-1.415 3.402-3.473 6.857-5.7 9.714-7.501 9.624-11.181 21.212-17.196 31.586-10.315 17.789-20.372 35.772-30.791 53.466-10.8 18.343-20.946 37.167-33.117 54.725-2.231 3.218-4.713 4.73-8.463 4.541-1.205-0.061-2.416-6e-3 -3.625-6e-3h-595.15c-0.806 0-1.638 0.132-2.417-0.027-5.836-1.179-11.314-0.889-3.574-8.183 14.29-13.466 28.582-26.932 42.871-40.4 35.963-33.897 73.021-66.675 107.62-101.97 8.892-9.071 18.023-18.029 26.324-27.766 6.195-7.267 12.31-14.7 19.442-21.228 3.276-2.998 6.219-6.767 8.755-10.473 5.628-8.225 13.229-14.739 18.795-23.04 3.73-5.563 9.055-10.015 13.402-15.234 10.072-12.093 20.303-24.038 28.999-37.203 1.414-2.141 3.246-4.02 4.976-5.938 12.183-13.5 21.97-28.875 32.986-43.26 9.32-12.172 18.258-24.83 27.791-36.845 32.634-41.133 61.648-85.002 92.742-127.25 10.999-14.945 22.139-29.787 33.222-44.693 5.151-6.949-6.837-17.804-11.08-22.01-2.587-2.564-8.841-6.094-10.323-9.272-1.037-2.224-1.809-11.428-2.38-14.643-0.832-4.69 0.533-8.343 5.177-11.06 9.691-5.671 16.486-14.973 22.733-24.052 5.177-7.524 9.51-20.469 20.699-18.03 11.038 2.407 20.845 12.814 31.305 14.497 9.592 1.543 15.75-17.376 20.97-25.449 14.388-22.254 30.849-43.061 47.02-64.024 11.515-14.928 26.153-27.364 40.158-40.161 21.391-19.545 42.533-39.333 61.892-60.985 11.196-12.521 22.376-24.99 32.563-38.373 12.138-15.945 24.001-32.132 34.642-49.048 17.201-27.342 37.595-51.808 61.03-73.914 25.421-23.978 51.536-47.129 78.327-69.591 22.521-18.882 47.49-33.976 71.811-50.126 11.429-7.59 22.534-15.664 33.721-23.586 12.741-9.022 26.368-16.286 40.022-23.671 14.399-7.787 28.227-16.639 42.707-24.262 15.571-8.198 30.443-17.583 45.802-26.137 20.088-11.187 40.05-22.642 60.037-34.033 12.358-7.043 25.162-13.221 38.96-16.817 8.558-2.231 16.623 0.789 24.268 4.501 15.357 7.456 30.706 14.877 46.485 21.467 12.939 5.404 26.214 9.347 39.788 12.515 2.907 0.678 5.831 1.046 8.897 1.132 19.48 0.545 38.837 2.745 57.574 8.125 18.22 5.231 25.229 15.847 23.897 34.565-0.286 4.022 0.865 4.911 4.46 4.747 12.784-0.584 25.636 0.6 38.342-2.207 4.045-0.894 8.426-0.262 12.653-0.337 2.376-0.042 5.265 0.601 6.408-2.14 1.276-3.06-1.78-4.074-3.573-5.384-5.804-4.242-11.693-8.37-17.606-12.459-12.921-8.934-24.491-19.245-32.408-33.012-6.525-11.346-10.406-23.616-11.845-36.691-0.7-6.358-1.812-12.731-3.094-18.958-4.35-21.142-4.812-42.954-4.444-64.464 0.351-20.527-1-42.02 1.256-62.387 2.463-22.23 10.036-49.248 33.461-57.27 22.609-7.743 45.86-12.569 69.851-13.232 15.984-0.442 31.943-2.702 47.954-0.984 5.263 0.565 6.523-1.684 6.589-6.514 0.444-32.685-4.656-66.855-4.116-100.46 0.09-5.605 2.024-7.48 6.414-9.791 16.631-8.758 34.781-8.052 52.631-9.156 29.725-1.839 59.501-0.721 89.252-1.141 35.52-0.502 71.044-0.663 106.56-1.243 36.576-0.597 73.146-1.429 109.73-0.491 16.627 0.426 33.27 1.081 49.889 0.755 23.061-0.452 46.075 0.903 69.107 1.278 10.645 0.174 21.792 1.663 31.693 5.97 4.532 1.971 9.726 5.22 12.666 9.386 3.143 4.453 2.394 10.645 2.52 16.166 0.645 28.3-3.549 58.244-5.24 87.166-1.718 29.387-1.108 58.834-2.71 88.278-0.947 17.411-1.557 34.908-1.73 52.371-0.132 13.27-0.42 26.608-1.607 39.721-1.373 15.166-0.496 30.332-1.903 45.406-1.189 12.736 1.208 25.592-1.972 38.288-0.976 3.896 0.523 8.357 0.494 12.557-0.068 9.781-0.238 19.566-0.638 29.338-0.254 6.192 0.134 6.744 6.215 7.749 8.573 1.417 17.19 1.089 28.57 1.293zm-653.89-182.02c-0.736 31.826 2.287 64.389 10.741 94.126 4.516 15.883 14.903 27.959 27.264 38.481 11.962 10.182 24.921 18.997 38.293 27.139 11.873 7.229 24.081 13.938 37.936 16.896 5.547 1.184 6.696 0.76 6.833-4.753 0.154-6.219-0.16-12.453-0.385-18.677-0.927-25.717-3.338-51.369-3.342-77.128-1e-3 -5.432 0.267-10.91-0.313-16.289-2.783-25.808-2.14-51.789-4.052-77.657-0.834-11.28-1.253-21.352-9.996-30.052-8.598-8.555-15.62-18.345-27.634-23.17-14.399-5.784-28.654-5.052-43.149-1.821-17.237 3.842-27.184 15.039-29.257 32.238-1.596 13.224-2.621 26.876-2.939 40.667zm-33.548 324.62c3.026-0.326 6.017-0.728 8.968-1.215 2.926-0.48 3.76-2.274 1.592-4.593-1.213-1.298-2.763-2.323-4.275-3.294-10.092-6.487-19.507-13.864-28.538-21.732-13.891-12.102-28.769-23.183-40.948-37.089-7.533-8.6-17.724-12.203-27.743-14.592-9.77-2.33-18.535-5.803-26.655-11.274-3.511-2.366-5.551-2.287-8.862 0.888-12.645 12.121-27.539 19.271-45.582 17.866-5.508-0.429-9.327 2.073-11.899 6.51-4.025 6.943-9.475 12.378-16.314 16.443-7.403 4.399-14.691 8.978-22.752 12.223-2.78 1.119-7.271 2.245-7.141 5.374 0.098 2.369 4.714 1.834 7.353 2.487 0.389 0.096 0.757 0.271 1.137 0.405 14.013 4.954 27.603 11.018 42.608 13.07 28.818 3.942 56.995 11.096 85.999 14.276 29.415 3.223 62.9 7.499 93.052 4.247z"/>
</svg>