<svg xmlns="http://www.w3.org/2000/svg" version="1.1" xmlns:xlink="http://www.w3.org/1999/xlink" xmlns:svgjs="http://svgjs.dev/svgjs" width="100%" height="100%" viewBox="0 0 1000 600"><rect width="1000" height="600" x="0" y="0" fill="white"/><g><circle r="166.66666666666666" cx="553.6757609049479" cy="575.8980065414639" fill="#2579af" transform="matrix(0.3229897892848984,0,0,0.3229897892848984,0,113.99081876007145)"/><path d="M426.95481184258927 500.8979997473045L572.368865067001 500.8979997473045L572.368865067001 550.0982433194739L552.2635803480034 550.0982433194739L552.2635803480034 519.0292006192706L477.46098780587175 519.0292006192706L477.46098780587175 569.5657471032767L512.4478276794143 569.5657471032767L512.4478276794143 549.2174982184906L529.7286539711208 549.2174982184906L529.7286539711208 606.7392644689158L512.4478276794143 606.7392644689158L512.4478276794143 586.1784219390648L477.46098780587175 586.1784219390648L477.46098780587175 632.7364302082843L506.9811339491734 632.7364302082843L506.9811339491734 650.898001600974L426.95481184258927 650.898001600974L426.95481184258927 632.7364302082843L455.16902559477774 632.7364302082843L455.16902559477774 519.0292006192706L426.95481184258927 519.0292006192706L426.95481184258927 500.8979997473045ZM671.2249100221932 545.2693305244277L680.3968072807088 545.2693305244277L680.3968072807088 589.002880366356L661.3848613077594 589.002880366356L661.3848613077594 566.498324510197Q652.8507449844385 566.498324510197 642.7981026249397 572.8457633414213Q632.7150897447173 579.1628316519221 622.0246664500237 590.7643705683225L622.0246664500237 590.7643705683225L622.0246664500237 633.6171753092677L645.409967407166 633.6171753092677L645.409967407166 650.898001600974L577.4103715071121 650.898001600974L577.4103715071121 633.6171753092677L600.5830788191895 633.6171753092677L600.5830788191895 565.1923921190839L577.4103715071121 565.1923921190839L577.4103715071121 547.9115658273774L622.0246664500237 547.9115658273774L622.0246664500237 573.696137921681Q633.5958348457007 560.3634793240376 646.1692304252551 552.8315901845945Q658.7426260048094 545.2693305244277 671.2249100221932 545.2693305244277L671.2249100221932 545.2693305244277Z " fill="white" transform="matrix(0.3229897892848984,0,0,0.3229897892848984,0,113.99081876007145)"/><path d="M803.6758049027899 503.8448997378717L943.3762527012065 503.8448997378717L943.3762527012065 551.1119685418473L924.0609443381004 551.1119685418473L924.0609443381004 521.2636899082256L852.1974934342783 521.2636899082256L852.1974934342783 569.8145556426795L885.8096312504387 569.8145556426795L885.8096312504387 550.2658296558502L902.411459737761 550.2658296558502L902.411459737761 605.52745207235L885.8096312504387 605.52745207235L885.8096312504387 585.7744856647627L852.1974934342783 585.7744856647627L852.1974934342783 630.5031378107468L880.5577347166637 630.5031378107468L880.5577347166637 647.9511051840663L803.6758049027899 647.9511051840663L803.6758049027899 630.5031378107468L830.7814264576623 630.5031378107468L830.7814264576623 521.2636899082256L803.6758049027899 521.2636899082256L803.6758049027899 503.8448997378717ZM1001.3513549934901 650.8980026835735Q986.8794623226432 650.8980026835735 974.274910641583 644.3914864222855Q961.6703589605229 637.8557929580321 954.2009950013761 625.893139742211Q946.7316310422294 613.9304865263902 946.7316310422294 598.5832777665806L946.7316310422294 598.5832777665806Q946.7316310422294 583.0318285860134 954.2009950013761 571.1567069790887Q961.6703589605229 559.3107625751294 974.274910641583 552.7750691108761Q986.8794623226432 546.268552849588 1001.3513549934901 546.268552849588L1001.3513549934901 546.268552849588Q1015.6481844465443 546.268552849588 1028.136027315743 552.7750691108761Q1040.6530473879066 559.3107625751294 1048.2099429559498 571.2734157909505Q1055.7668385239926 583.2360690067713 1055.7668385239926 598.5832777665806L1055.7668385239926 598.5832777665806Q1055.7668385239926 613.9304865263902 1048.4141833767076 625.893139742211Q1041.0615282294225 637.8557929580321 1028.5736853602243 644.3914864222855Q1016.0566652880601 650.8980026835735 1001.3513549934901 650.8980026835735L1001.3513549934901 650.8980026835735ZM1001.3513549934901 634.2961741962512Q1010.8047687542852 634.2961741962512 1018.3908415252936 629.8904165484731Q1025.9477370933364 625.4846589006953 1030.236785929253 617.3733964763093Q1034.5550119681347 609.2913112548887 1034.5550119681347 598.5832777665806L1034.5550119681347 598.5832777665806Q1034.5550119681347 587.8752442782726 1030.236785929253 579.7931590568522Q1025.9477370933364 571.6818966324662 1018.3908415252936 567.2761389846883Q1010.8047687542852 562.8703813369102 1001.3513549934901 562.8703813369102L1001.3513549934901 562.8703813369102Q986.8794623226432 562.8703813369102 977.5135801707444 572.6447443303251Q968.1768752218109 582.4191073237397 968.1768752218109 598.5832777665806L968.1768752218109 598.5832777665806Q968.1768752218109 614.7474482094218 977.5135801707444 624.5218112028364Q986.8794623226432 634.2961741962512 1001.3513549934901 634.2961741962512L1001.3513549934901 634.2961741962512ZM1127.6302894278147 650.8980026835735Q1113.1292195540027 650.8980026835735 1100.5246678729422 644.3914864222855Q1087.9201161918822 637.8557929580321 1080.4507522327353 625.893139742211Q1073.0105654765543 613.9304865263902 1073.0105654765543 598.5832777665806L1073.0105654765543 598.5832777665806Q1073.0105654765543 583.0318285860134 1080.4507522327353 571.1567069790887Q1087.9201161918822 559.3107625751294 1100.5246678729422 552.7750691108761Q1113.1292195540027 546.268552849588 1127.6302894278147 546.268552849588L1127.6302894278147 546.268552849588Q1141.8979416779039 546.268552849588 1154.4149617500675 552.7750691108761Q1166.9028046192661 559.3107625751294 1174.459700187309 571.2734157909505Q1182.0165957553522 583.2360690067713 1182.0165957553522 598.5832777665806L1182.0165957553522 598.5832777665806Q1182.0165957553522 613.9304865263902 1174.6639406080672 625.893139742211Q1167.311285460782 637.8557929580321 1154.8234425915834 644.3914864222855Q1142.3355997223848 650.8980026835735 1127.6302894278147 650.8980026835735L1127.6302894278147 650.8980026835735ZM1127.6302894278147 634.2961741962512Q1137.08370318861 634.2961741962512 1144.6405987566527 629.8904165484731Q1152.197494324696 625.4846589006953 1156.5157203635777 617.3733964763093Q1160.8047691994939 609.2913112548887 1160.8047691994939 598.5832777665806L1160.8047691994939 598.5832777665806Q1160.8047691994939 587.8752442782726 1156.5157203635777 579.7931590568522Q1152.197494324696 571.6818966324662 1144.6405987566527 567.2761389846883Q1137.08370318861 562.8703813369102 1127.6302894278147 562.8703813369102L1127.6302894278147 562.8703813369102Q1113.1292195540027 562.8703813369102 1103.7633374021038 572.6447443303251Q1094.4266324531704 582.4191073237397 1094.4266324531704 598.5832777665806L1094.4266324531704 598.5832777665806Q1094.4266324531704 614.7474482094218 1103.7633374021038 624.5218112028364Q1113.1292195540027 634.2961741962512 1127.6302894278147 634.2961741962512L1127.6302894278147 634.2961741962512ZM1318.3616652127457 630.9407958552282L1322.7674228605238 646.0545869913143Q1319.8497025639822 647.7468647633083 1315.648185336962 648.8847756789597Q1311.446668109942 650.0518637975764 1306.8074928384403 650.0518637975764L1306.8074928384403 650.0518637975764Q1299.0463568496398 650.0518637975764 1293.3568022713835 645.9670553824179Q1287.6964248960926 641.8530697642942 1285.5956662825824 634.0919337754932L1285.5956662825824 634.0919337754932Q1277.1926318285423 641.6488293435362 1267.855926879609 646.258827412072Q1258.49004472771 650.8980026835735 1247.1401127741628 650.8980026835735L1247.1401127741628 650.8980026835735Q1234.3313206723446 650.8980026835735 1223.302337951417 644.3914864222855Q1212.2733552304894 637.8557929580321 1205.7668389692017 626.2140889748306Q1199.2603227079135 614.5432077886638 1199.2603227079135 599.8378974940937L1199.2603227079135 599.8378974940937Q1199.2603227079135 584.5198659372498 1206.0877882018212 572.2070862858437Q1212.9152536957286 559.9234838374032 1224.6736664907917 553.0960183434956Q1236.4320792858548 546.268552849588 1250.728908738909 546.268552849588L1250.728908738909 546.268552849588Q1268.9938377952603 546.268552849588 1284.3410465550696 559.7192434166452L1284.3410465550696 559.7192434166452L1284.3410465550696 520.446728225194L1262.0788406924562 520.446728225194L1262.0788406924562 503.8448997378717L1304.5024938041724 503.8448997378717L1304.5024938041724 622.537761401188Q1304.5024938041724 632.603896424257 1311.446668109942 632.603896424257L1311.446668109942 632.603896424257Q1316.0566661784778 632.603896424257 1318.3616652127457 630.9407958552282L1318.3616652127457 630.9407958552282ZM1220.6763896845296 599.6336570733357Q1220.6763896845296 614.7474482094218 1229.1961329504315 623.9966215494588Q1237.6866990133676 633.2457948894961 1251.3416300011827 633.2457948894961L1251.3416300011827 633.2457948894961Q1267.097319602508 633.2457948894961 1284.3410465550696 618.9489654364419L1284.3410465550696 618.9489654364419L1284.3410465550696 575.4749330179706Q1269.6357362604995 563.7165202229073 1255.3389068074448 563.7165202229073L1255.3389068074448 563.7165202229073Q1245.477012205134 563.7165202229073 1237.4824585926099 568.3265182914432Q1229.5170821830511 572.9656935629447 1225.0821473323076 581.1353103932614Q1220.6763896845296 589.3341044265436 1220.6763896845296 599.6336570733357L1220.6763896845296 599.6336570733357ZM1549.8827707433293 621.6916225151909L1560.5908042316373 635.755034344522Q1547.3443540853382 650.8980026835735 1529.9255639149842 650.8980026835735L1529.9255639149842 650.8980026835735Q1511.6314576556679 650.8980026835735 1499.1436147864692 637.6515525372741Q1486.6265947143056 624.4342795939402 1478.8654587255046 596.8909999945867L1478.8654587255046 596.8909999945867L1475.5100803844816 586.3872069270363L1445.4575613301022 586.3872069270363L1445.4575613301022 630.5031378107468L1471.9212844197355 630.5031378107468L1471.9212844197355 647.9511051840663L1396.731632377856 647.9511051840663L1396.731632377856 630.7365554344702L1423.837253932728 630.7365554344702L1423.837253932728 521.2636899082256L1396.731632377856 521.2636899082256L1396.731632377856 503.8448997378717L1480.3243188737752 503.8448997378717Q1504.920700973622 503.8448997378717 1519.1883532237107 514.9614140676956Q1533.485182676765 526.1071056004848 1533.485182676765 545.218173542833L1533.485182676765 545.218173542833Q1533.485182676765 560.9738631441583 1523.3023388418346 571.798605444328Q1513.119495006904 582.6233477444977 1494.6211483268298 585.3368276202815L1494.6211483268298 585.3368276202815L1498.4141847123337 595.6363802670736Q1504.920700973622 614.1347269471479 1512.8860773831807 622.537761401188Q1520.880630995705 630.9407958552282 1530.9759432217393 630.9407958552282L1530.9759432217393 630.9407958552282Q1537.2782190622693 630.9407958552282 1541.6839767100473 628.4023791972369Q1546.0897343578254 625.893139742211 1549.8827707433293 621.6916225151909L1549.8827707433293 621.6916225151909ZM1445.4575613301022 521.2636899082256L1445.4575613301022 570.0187960634374L1480.9662173390147 570.0187960634374Q1494.4169079060716 570.0187960634374 1503.2284232016277 563.3955709902878Q1512.0691157001488 556.7723459171382 1512.0691157001488 545.218173542833L1512.0691157001488 545.218173542833Q1512.0691157001488 534.101659213009 1503.3451320134895 527.6826745606174Q1494.6211483268298 521.2636899082256 1480.9662173390147 521.2636899082256L1480.9662173390147 521.2636899082256L1445.4575613301022 521.2636899082256ZM1654.6872837951073 619.795104322439L1663.5279762936289 633.2457948894961Q1643.3665290445256 650.8980026835735 1617.515527217166 650.8980026835735L1617.515527217166 650.8980026835735Q1603.452115387835 650.8980026835735 1590.847563706775 645.0042076845592Q1578.243012025715 639.1395898885104 1570.4526988339485 627.7896579349632Q1562.6915628451475 616.439725981416 1562.6915628451475 600.8882768008488L1562.6915628451475 600.8882768008488Q1562.6915628451475 584.2864483135264 1570.6569392547062 571.9153142561896Q1578.6514928672304 559.5150029958874 1591.4602849690486 552.8917779227377Q1604.2690770708668 546.268552849588 1618.3616661031629 546.268552849588L1618.3616661031629 546.268552849588Q1630.7619773634651 546.268552849588 1640.5071631539145 550.2658296558502Q1650.2815261473293 554.2631064621123 1655.8543719137242 561.4115211886394Q1661.4272176801187 568.5307587122012 1661.4272176801187 577.7799320522385L1661.4272176801187 577.7799320522385Q1661.4272176801187 591.6391034608115 1649.5520960731938 599.3127078407161Q1637.6769744662693 606.9863122206208 1621.0751459789471 606.9863122206208L1621.0751459789471 606.9863122206208Q1610.367112490639 606.9863122206208 1601.1179391506016 604.768844795249Q1591.89794301353 602.580554572843 1582.4445292527348 598.3790373458229L1582.4445292527348 598.3790373458229L1582.4445292527348 600.2755555385748Q1582.4445292527348 610.1374501408858 1587.1712361331324 617.6943457089288Q1591.89794301353 625.2512412769719 1599.8633194230888 629.248518083234Q1607.857873035613 633.2457948894961 1617.3112867964082 633.2457948894961L1617.3112867964082 633.2457948894961Q1638.7273537730243 633.2457948894961 1654.6872837951073 619.795104322439L1654.6872837951073 619.795104322439ZM1619.8205262514339 562.6661409161524Q1608.4705942978867 562.6661409161524 1598.7254085074374 569.1726571774403Q1588.951045514023 575.6791734387283 1584.7495282870027 586.8248649715177L1584.7495282870027 586.8248649715177Q1600.7094583090857 592.4852423468086 1616.669388331169 592.4852423468086L1616.669388331169 592.4852423468086Q1627.173181398719 592.4852423468086 1634.0006468926267 588.6046743524081Q1640.828112386534 584.7241063580076 1640.828112386534 577.7799320522385L1640.828112386534 577.7799320522385Q1640.828112386534 571.0691753701925 1634.9634945904854 566.8676581431724Q1629.0696995914714 562.6661409161524 1619.8205262514339 562.6661409161524L1619.8205262514339 562.6661409161524ZM1731.160732767465 589.5383448473016Q1750.5052183335365 594.7902413810765 1760.8923025892254 602.6680861817391Q1771.279386844914 610.5459309824017 1771.279386844914 623.7923811287011L1771.279386844914 623.7923811287011Q1771.279386844914 635.9884519682454 1761.0090114010868 643.4286387244266Q1750.7094587542947 650.8980026835735 1735.5664904152432 650.8980026835735L1735.5664904152432 650.8980026835735Q1725.0626973476928 650.8980026835735 1714.8798535127626 647.221675109931Q1704.6970096778318 643.5453475362884 1696.702456065308 637.0388312750002L1696.702456065308 637.0388312750002L1696.702456065308 648.1553456048242L1680.7425260432246 648.1553456048242L1680.7425260432246 616.0312451399001L1689.787458962504 615.185106253903Q1697.7528353720627 624.2008619702168 1709.8321973997454 630.6198466226086Q1721.911559427428 637.0388312750002 1733.465731801733 637.0388312750002L1733.465731801733 637.0388312750002Q1741.2560449934995 637.0388312750002 1745.6618026412775 634.0919337754932Q1750.0675602890556 631.1450362759862 1750.0675602890556 625.688899321453L1750.0675602890556 625.688899321453Q1750.0675602890556 619.386623480923 1743.1525631862514 615.2726378627993Q1736.2083888804823 611.1878294476409 1720.452699279157 606.9863122206208L1720.452699279157 606.9863122206208Q1701.545871757567 601.9386561076036 1691.3630279226363 594.265051727699Q1681.180184087706 586.6206245507598 1681.180184087706 574.2203132904575L1681.180184087706 574.2203132904575Q1681.180184087706 566.4300000986912 1685.4692329236223 560.0401926492648Q1689.787458962504 553.6212079968732 1697.6653037631668 549.9448804232305Q1705.5431485638292 546.268552849588 1715.8427012106213 546.268552849588L1715.8427012106213 546.268552849588Q1725.9088362336902 546.268552849588 1735.0413007618658 549.623931190611Q1744.2029424930065 553.0084867345993 1750.913699175053 559.0773449514061L1750.913699175053 559.0773449514061L1750.913699175053 549.0112099283372L1766.6693887763777 549.0112099283372L1766.6693887763777 580.9310699725035L1757.4202154363406 581.9814492792585Q1751.5555976402916 572.1195546769476 1741.3435766023958 566.138228069037Q1731.160732767465 560.1277242581612 1721.0945977443967 560.1277242581612L1721.0945977443967 560.1277242581612Q1712.8958037111142 560.1277242581612 1707.6439071773393 563.3955709902878Q1702.392010643564 566.6634177224145 1702.392010643564 571.9153142561896L1702.392010643564 571.9153142561896Q1702.392010643564 577.5756916314805 1709.307007746368 581.456259625881Q1716.2511820521372 585.3368276202815 1731.160732767465 589.5383448473016L1731.160732767465 589.5383448473016ZM1885.77073128121 619.795104322439L1894.6114237797315 633.2457948894961Q1874.4499765306282 650.8980026835735 1848.5989747032686 650.8980026835735L1848.5989747032686 650.8980026835735Q1834.5355628739376 650.8980026835735 1821.9310111928776 645.0042076845592Q1809.3264595118171 639.1395898885104 1801.536146320051 627.7896579349632Q1793.77501033125 616.439725981416 1793.77501033125 600.8882768008488L1793.77501033125 600.8882768008488Q1793.77501033125 584.2864483135264 1801.7403867408093 571.9153142561896Q1809.734940353333 559.5150029958874 1822.5437324551513 552.8917779227377Q1835.352524556969 546.268552849588 1849.445113589266 546.268552849588L1849.445113589266 546.268552849588Q1861.8454248495677 546.268552849588 1871.590610640017 550.2658296558502Q1881.3649736334319 554.2631064621123 1886.9378193998264 561.4115211886394Q1892.5106651662209 568.5307587122012 1892.5106651662209 577.7799320522385L1892.5106651662209 577.7799320522385Q1892.5106651662209 591.6391034608115 1880.6355435592964 599.3127078407161Q1868.7604219523719 606.9863122206208 1852.1585934650493 606.9863122206208L1852.1585934650493 606.9863122206208Q1841.4505599767413 606.9863122206208 1832.2013866367042 604.768844795249Q1822.9813904996327 602.580554572843 1813.5279767388374 598.3790373458229L1813.5279767388374 598.3790373458229L1813.5279767388374 600.2755555385748Q1813.5279767388374 610.1374501408858 1818.254683619235 617.6943457089288Q1822.9813904996327 625.2512412769719 1830.9467669091914 629.248518083234Q1838.9413205217156 633.2457948894961 1848.3947342825109 633.2457948894961L1848.3947342825109 633.2457948894961Q1869.810801259127 633.2457948894961 1885.77073128121 619.795104322439L1885.77073128121 619.795104322439ZM1850.9039737375365 562.6661409161524Q1839.5540417839893 562.6661409161524 1829.80885599354 569.1726571774403Q1820.0344930001256 575.6791734387283 1815.8329757731053 586.8248649715177L1815.8329757731053 586.8248649715177Q1831.7929057951883 592.4852423468086 1847.7528358172713 592.4852423468086L1847.7528358172713 592.4852423468086Q1858.2566288848216 592.4852423468086 1865.0840943787293 588.6046743524081Q1871.9115598726366 584.7241063580076 1871.9115598726366 577.7799320522385L1871.9115598726366 577.7799320522385Q1871.9115598726366 571.0691753701925 1866.046942076588 566.8676581431724Q1860.1531470775735 562.6661409161524 1850.9039737375365 562.6661409161524L1850.9039737375365 562.6661409161524ZM1998.8032155692354 546.472793270346L2007.6147308647915 546.472793270346L2007.6147308647915 588.4879655405465L1989.3498018084401 588.4879655405465L1989.3498018084401 566.8676581431724Q1981.1510077751577 566.8676581431724 1971.4933535936048 572.9656935629447Q1961.8356994120518 579.0345517797513 1951.5361467652597 590.1802433125407L1951.5361467652597 590.1802433125407L1951.5361467652597 631.3492766967439L1974.0025930486308 631.3492766967439L1974.0025930486308 647.9511051840663L1908.6748356090625 647.9511051840663L1908.6748356090625 631.3492766967439L1930.9370414716755 631.3492766967439L1930.9370414716755 565.6130384156595L1908.6748356090625 565.6130384156595L1908.6748356090625 549.0112099283372L1951.5361467652597 549.0112099283372L1951.5361467652597 573.7826552459763Q1962.6818382980491 560.9738631441583 1974.7612003257318 553.7379168087348Q1986.8405623534145 546.472793270346 1998.8032155692354 546.472793270346L1998.8032155692354 546.472793270346ZM2146.702457400934 549.0112099283372L2146.702457400934 565.6130384156595L2130.30486933437 565.6130384156595L2086.393178871417 650.6937622628155L2075.8893858038673 650.6937622628155L2031.1607336578827 565.6130384156595L2016.0177653188316 565.6130384156595L2016.0177653188316 549.0112099283372L2069.587109963337 549.0112099283372L2069.587109963337 564.1250010644233L2053.01445867898 564.1250010644233L2083.2420409511524 625.0470008562139L2112.8860791640163 564.1250010644233L2095.8465926322124 564.1250010644233L2095.8465926322124 549.0112099283372L2146.702457400934 549.0112099283372ZM2263.0903200299826 630.5031378107468L2267.291837257003 645.4418657290404Q2260.3476629512334 649.6433829560605 2251.098489611196 649.6433829560605L2251.098489611196 649.6433829560605Q2243.3373536223953 649.6433829560605 2237.9687482767586 645.1209164964208Q2232.629320134087 640.5984500367812 2230.5285615205776 632.195415582741L2230.5285615205776 632.195415582741Q2209.520975385477 650.8980026835735 2188.9218700918927 650.8980026835735L2188.9218700918927 650.8980026835735Q2174.4208002180803 650.8980026835735 2164.354665195012 642.6992086502913Q2154.2593529689775 634.5004146170091 2154.2593529689775 619.795104322439L2154.2593529689775 619.795104322439Q2154.2593529689775 609.7289692993701 2159.919730344268 602.2596053402234Q2165.6092849225242 594.7902413810765 2175.1502302922154 590.909673386676Q2184.7203528648724 587.0291053922757 2195.8660443976623 587.0291053922757L2195.8660443976623 587.0291053922757Q2205.3194581584567 587.0291053922757 2213.284834568016 588.8089147731661Q2221.27938818054 590.5887241540564 2229.68242263458 593.9732796980448L2229.68242263458 593.9732796980448L2229.68242263458 584.7241063580076Q2229.68242263458 574.0160728696995 2222.5340079080534 568.9684167566826Q2215.385593181526 563.9207606436653 2203.8314208072206 563.9207606436653L2203.8314208072206 563.9207606436653Q2187.4630099436217 563.9207606436653 2164.354665195012 572.9656935629447L2164.354665195012 572.9656935629447L2160.1531479679916 556.976586337896Q2184.92459328563 546.472793270346 2206.369837465212 546.472793270346L2206.369837465212 546.472793270346Q2226.7355251350727 546.472793270346 2237.9687482767586 556.4513966845186Q2249.2019714184444 566.4300000986912 2249.2019714184444 585.5702452440047L2249.2019714184444 585.5702452440047L2249.2019714184444 621.8958629359489Q2249.2019714184444 632.195415582741 2256.5546265657294 632.195415582741L2256.5546265657294 632.195415582741Q2259.705764485994 632.195415582741 2263.0903200299826 630.5031378107468L2263.0903200299826 630.5031378107468ZM2174.625040638838 618.7447250156839Q2174.625040638838 625.893139742211 2180.3145952170944 629.7737077366115Q2185.9749725923857 633.654275731012 2194.1737666256677 633.654275731012L2194.1737666256677 633.654275731012Q2201.322181352195 633.654275731012 2210.5713546922325 629.8904165484731Q2219.791350829304 626.097380162969 2229.68242263458 618.7447250156839L2229.68242263458 618.7447250156839L2229.68242263458 607.6282106858599Q2215.385593181526 602.580554572843 2199.4256631594426 602.1428965283616L2199.4256631594426 602.1428965283616Q2189.1261105126505 602.1428965283616 2181.8901641772272 606.4611225672433Q2174.625040638838 610.7793486061249 2174.625040638838 618.7447250156839L2174.625040638838 618.7447250156839ZM2351.9349030596777 625.4846589006953L2359.083317786204 641.0069308782971Q2351.3221817974036 645.6461061497984 2343.8528178382567 648.1553456048242Q2336.3834538791098 650.6937622628155 2326.725799697557 650.6937622628155L2326.725799697557 650.6937622628155Q2310.5616292547156 650.6937622628155 2300.9915066820595 640.4817412249196Q2291.4505613123683 630.2988973899891 2291.4505613123683 611.3920698683988L2291.4505613123683 611.3920698683988L2291.4505613123683 565.6130384156595L2269.392595870513 565.6130384156595L2269.392595870513 549.0112099283372L2291.4505613123683 549.0112099283372L2291.4505613123683 521.497107531949L2312.0204894029866 521.497107531949L2312.0204894029866 549.0112099283372L2344.7864883331504 549.0112099283372L2344.7864883331504 565.6130384156595L2312.0204894029866 565.6130384156595L2312.0204894029866 611.5963102891568Q2312.0204894029866 622.3335209804301 2316.863905095246 627.3519998904818Q2321.6781435845396 632.399656003499 2329.8769376178225 632.399656003499L2329.8769376178225 632.399656003499Q2335.7707326168365 632.399656003499 2341.0226291506115 630.6198466226086Q2346.2745256843864 628.840037241718 2351.9349030596777 625.4846589006953L2351.9349030596777 625.4846589006953ZM2395.642353101872 526.5155864420008Q2388.902419216861 526.5155864420008 2384.292421148325 522.9559676802198Q2379.6824230797893 519.3963489184389 2379.6824230797893 513.9110347609405L2379.6824230797893 513.9110347609405Q2379.6824230797893 508.2506573856497 2384.292421148325 504.57432981200714Q2388.902419216861 500.8980022383646 2395.642353101872 500.8980022383646L2395.642353101872 500.8980022383646Q2402.790767828399 500.8980022383646 2407.400765896935 504.57432981200714Q2412.0107639654707 508.2506573856497 2412.0107639654707 513.9110347609405L2412.0107639654707 513.9110347609405Q2412.0107639654707 519.3963489184389 2407.400765896935 522.9559676802198Q2402.790767828399 526.5155864420008 2395.642353101872 526.5155864420008L2395.642353101872 526.5155864420008ZM2408.246904782932 631.3492766967439L2430.7133510663034 631.3492766967439L2430.7133510663034 647.9511051840663L2365.3855936267346 647.9511051840663L2365.3855936267346 631.3492766967439L2387.6477994893476 631.3492766967439L2387.6477994893476 565.6130384156595L2365.3855936267346 565.6130384156595L2365.3855936267346 549.0112099283372L2408.246904782932 549.0112099283372L2408.246904782932 631.3492766967439ZM2496.041108505872 650.8980026835735Q2481.569215835025 650.8980026835735 2468.964664153965 644.3914864222855Q2456.360112472905 637.8557929580321 2448.890748513758 625.893139742211Q2441.421384554611 613.9304865263902 2441.421384554611 598.5832777665806L2441.421384554611 598.5832777665806Q2441.421384554611 583.0318285860134 2448.890748513758 571.1567069790887Q2456.360112472905 559.3107625751294 2468.964664153965 552.7750691108761Q2481.569215835025 546.268552849588 2496.041108505872 546.268552849588L2496.041108505872 546.268552849588Q2510.337937958926 546.268552849588 2522.825780828124 552.7750691108761Q2535.342800900289 559.3107625751294 2542.899696468332 571.2734157909505Q2550.456592036375 583.2360690067713 2550.456592036375 598.5832777665806L2550.456592036375 598.5832777665806Q2550.456592036375 613.9304865263902 2543.1039368890897 625.893139742211Q2535.7512817418046 637.8557929580321 2523.2634388726065 644.3914864222855Q2510.7464188004415 650.8980026835735 2496.041108505872 650.8980026835735L2496.041108505872 650.8980026835735ZM2496.041108505872 634.2961741962512Q2505.4945222666665 634.2961741962512 2513.0805950376753 629.8904165484731Q2520.637490605718 625.4846589006953 2524.926539441635 617.3733964763093Q2529.2447654805164 609.2913112548887 2529.2447654805164 598.5832777665806L2529.2447654805164 598.5832777665806Q2529.2447654805164 587.8752442782726 2524.926539441635 579.7931590568522Q2520.637490605718 571.6818966324662 2513.0805950376753 567.2761389846883Q2505.4945222666665 562.8703813369102 2496.041108505872 562.8703813369102L2496.041108505872 562.8703813369102Q2481.569215835025 562.8703813369102 2472.2033336831264 572.6447443303251Q2462.866628734193 582.4191073237397 2462.866628734193 598.5832777665806L2462.866628734193 598.5832777665806Q2462.866628734193 614.7474482094218 2472.2033336831264 624.5218112028364Q2481.569215835025 634.2961741962512 2496.041108505872 634.2961741962512L2496.041108505872 634.2961741962512ZM2689.3109009487944 631.3492766967439L2709.0638673563817 631.3492766967439L2709.0638673563817 647.9511051840663L2650.6802842225816 647.9511051840663L2650.6802842225816 631.3492766967439L2668.945213278933 631.3492766967439L2668.945213278933 590.3844837332985Q2668.945213278933 578.8303113589935 2663.1681270917807 572.2070862858437Q2657.3910409046275 565.6130384156595 2646.68300741632 565.6130384156595L2646.68300741632 565.6130384156595Q2628.3889011570036 565.6130384156595 2608.023213487142 588.7213831642697L2608.023213487142 588.7213831642697L2608.023213487142 631.3492766967439L2626.2881425434934 631.3492766967439L2626.2881425434934 647.9511051840663L2565.161902330945 647.9511051840663L2565.161902330945 631.3492766967439L2587.424108193558 631.3492766967439L2587.424108193558 565.6130384156595L2565.161902330945 565.6130384156595L2565.161902330945 549.0112099283372L2608.023213487142 549.0112099283372L2608.023213487142 572.3237950977053Q2619.7816262822053 559.3107625751294 2630.6063685823747 552.8917779227377Q2641.431110882545 546.472793270346 2653.8314221428473 546.472793270346L2653.8314221428473 546.472793270346Q2670.8417314716853 546.472793270346 2680.090904811723 557.4142443823773Q2689.3109009487944 568.3265182914432 2689.3109009487944 589.7717624710248L2689.3109009487944 589.7717624710248L2689.3109009487944 631.3492766967439Z " fill="#2579af" transform="matrix(0.3229897892848984,0,0,0.3229897892848984,0,113.99081876007145)"/></g></svg>